<svg xmlns="http://www.w3.org/2000/svg" width="22.279" height="22.279" viewBox="0 0 22.279 22.279">
  <g id="ig-icon" transform="translate(-4.5 -4.5)">
    <path id="Path_481" data-name="Path 481" d="M20.281,6.357A4.655,4.655,0,0,1,24.922,11v9.283a4.655,4.655,0,0,1-4.641,4.641H11a4.655,4.655,0,0,1-4.641-4.641V11A4.655,4.655,0,0,1,11,6.357h9.283m0-1.857H11A6.517,6.517,0,0,0,4.5,11v9.283a6.517,6.517,0,0,0,6.5,6.5h9.283a6.517,6.517,0,0,0,6.5-6.5V11a6.517,6.517,0,0,0-6.5-6.5Z" fill="#fff"/>
    <path id="Path_482" data-name="Path 482" d="M25.017,11.785a1.392,1.392,0,1,1,1.392-1.392A1.389,1.389,0,0,1,25.017,11.785Z" transform="translate(-3.344 -0.787)" fill="#fff"/>
    <path id="Path_483" data-name="Path 483" d="M16.82,13.107a3.713,3.713,0,1,1-3.713,3.713,3.717,3.717,0,0,1,3.713-3.713m0-1.857a5.57,5.57,0,1,0,5.57,5.57,5.571,5.571,0,0,0-5.57-5.57Z" transform="translate(-1.18 -1.18)" fill="#fff"/>
  </g>
</svg>
