<svg xmlns="http://www.w3.org/2000/svg" width="1001.115" height="621.651" viewBox="0 0 1001.115 621.651">
  <g id="leagues-logo" transform="translate(-224.276 -1005.055)">
    <g id="Leagues" transform="translate(224.276 1005.055)">
      <g id="Group_2-2" data-name="Group 2-2">
        <g id="Group_1" data-name="Group 1">
          <path id="Path_1" data-name="Path 1" d="M272.54,1006.678c-.314,154.553-.628,407.155-.94,561.705q23.739-6.292,47.616-11.932-.073,20.412-.147,40.818-47.7,12.257-94.794,27.441V1006.776Z" transform="translate(-224.276 -1003.061)" fill="#fff"/>
          <path id="Path_2" data-name="Path 2" d="M383.878,1006.55q-.1,19.3-.2,38.6-28.966.446-57.922,1c-.281,58.809-.564,215.673-.847,274.493q27.8-2.68,55.659-4.924-.1,19.315-.2,38.628-27.855,2.637-55.65,5.807l-.871,181.889q29.214-5.682,58.587-10.367l-.2,38.584q-53.531,9.306-106.517,22.212c.651-162.573,1.3-423.187,1.954-585.755Q330.763,1006.614,383.878,1006.55Z" transform="translate(-161.081 -1003.217)" fill="#fff"/>
          <path id="Path_3" data-name="Path 3" d="M432.661,1554.8q-2.862-33.766-5.714-67.6-23.933,2.127-47.812,4.862-2.774,34.84-5.555,69.794-22.4,3.089-44.722,6.8c15.42-157.205,30.814-410.037,46.181-562.4l63.13-.041c13.77,150.043,27.679,396.916,41.727,544.512Q456.254,1552.417,432.661,1554.8ZM382.3,1455.257q20.877-2.141,41.815-3.861c-6.632-83.581-13.232-265.609-19.8-349.99C397,1186.174,389.66,1369.5,382.293,1455.272Z" transform="translate(-95.808 -1003.635)" fill="#fff"/>
          <path id="Path_4" data-name="Path 4" d="M475.1,1356.284q.014-17.353.029-34.721,36.241-.318,72.477.17.111,90.36.223,180.722c.047,32.951-19.479,48.485-58.591,48.742q-13.16.116-26.318.448c-39.1,1.084-58.566-13.874-58.479-47.02.307-117.316.614-332.685.922-450.01q.141-49.6,58.061-49.555h25.252c38.613,0,57.211,16.414,57.243,49.284l.147,223.781q-23.878-.246-47.761-.221l.016-221.726c0-10.728-5.2-15.153-17.1-15.136H470.812c-11.9.022-17.1,4.457-17.121,15.209-.16,115.469-.318,328.985-.474,444.456-.015,10.755,5.232,15,17.252,14.761q6.016-.112,12.018-.183c12.033-.136,17.279-4.533,17.279-15.271q0-71.936.014-143.874Q487.445,1356.164,475.1,1356.284Z" transform="translate(-2.968 -1005.048)" fill="#fff"/>
          <path id="Path_5" data-name="Path 5" d="M621.778,1511.875c.158,33.972-19.165,47.972-58.135,44.138q-11.989-1.141-23.993-2.1c-39.023-3.067-58.607-20.019-58.662-53.01-.252-132.126-.5-362.3-.755-494.43l48.277.02c.409,132.334.818,362.716,1.229,495.047.029,10.846,5.294,15.619,18.036,16.611q3.747.29,7.492.6c12.744,1.065,17.958-2.9,17.914-13.846l-1.589-498.387,48.261.039C620.505,1142.317,621.147,1376.117,621.778,1511.875Z" transform="translate(90.138 -1003.306)" fill="#fff"/>
          <path id="Path_6" data-name="Path 6" d="M661.431,1006.669q.092,19.817.186,39.643-28.947-.56-57.916-1.025c.3,57.6.594,213.261.891,270.871q27.857,2.273,55.647,5,.091,19.793.187,39.6-27.793-3.212-55.65-5.9.449,89.078.909,178.159,29.341,4.826,58.543,10.646.088,19.83.186,39.665-53.2-11.558-106.921-19.523c-.757-153.078-1.515-404.2-2.272-557.276Q608.33,1006.581,661.431,1006.669Z" transform="translate(182.255 -1003.243)" fill="#fff"/>
          <path id="Path_7" data-name="Path 7" d="M748.741,1435.091v137.4c-.029,38.853-18.776,51.684-56.717,40.642q-10.59-3.021-21.206-5.889c-38.088-10.317-56.669-32.167-56.824-68.029q-.325-73.481-.647-146.978,23.665,3.232,47.242,6.882.243,74.175.5,148.36c.036,11.3,5.2,17.453,17.653,20.6q2.924.739,5.854,1.5c11.708,3.024,17.535-.446,17.512-12.021q-.126-63.578-.251-127.164c-.043-20.935-2.984-29.491-17-43.141q-21.394-20.869-42.888-40.608c-22.235-20.163-28.982-35.117-29.12-68.266l-.542-219.5q-.245-53.662,57.694-53.822h20.055q57.939-.226,57.938,57.9v250.976q-23.531-3.017-47.123-5.728c-.1-49.11-.2-196.268-.3-245.377-.023-11.562-4.482-16.726-17.085-17l-5.931-.128c-12.61-.273-17.047,4.593-17.008,15.888.129,39.34.26,176.73.392,216.076.064,20.5,3.052,28.5,16.374,41.43q20.337,18.758,40.587,38.5C742.177,1381.664,748.741,1399.48,748.741,1435.091Z" transform="translate(252.373 -1005.055)" fill="#fff"/>
        </g>
      </g>
    </g>
  </g>
</svg>
